# xmcd CD database file
# Copyright (C) 1993-1998 Ti Kan
#
# Track frame offsets:
#	150
#	21262
#	36100
#	58760
#	71080
#	83382
#	99330
#	128120
#	141212
#	167625
#	191985
#	210025
#	232772
#
# Disc length: 3281 seconds
#
# Revision: 1
# Processed by: cddbd v1.4b41PL1 Copyright (c) Steve Scherf et al.
# Submitted via: CDValet v3.31 - Copyright (c) 1997 Greg Leichner
#
DISCID=a50ccf0d
DTITLE=Anne Murray - An Intimate Evening With Anne Murray ... L
DTITLE=ive
DYEAR=1900
DGENRE=
TTITLE0=Time Don't Run Out On Me
TTITLE1=Shame On Me
TTITLE2=That's The Way It Goes
TTITLE3=A Love Song
TTITLE4=Save The Last Dance For Me
TTITLE5=Somebody's Always Saying Goodbye
TTITLE6=Insensitive (feat. Jann Arden)
TTITLE7=Snobird (with Jann Arden)
TTITLE8=Croonin' Medley
TTITLE9=What Would It Take (with Bryan Adams)
TTITLE10=You Needed Me
TTITLE11=Could I Have This Dance
TTITLE12=Danny's Song
EXTD=
EXTT0=
EXTT1=
EXTT2=
EXTT3=
EXTT4=
EXTT5=
EXTT6=
EXTT7=
EXTT8=
EXTT9=
EXTT10=
EXTT11=
EXTT12=
PLAYORDER=
